<?xml version="1.0" standalone="no"?><!DOCTYPE svg PUBLIC "-//W3C//DTD SVG 1.1//EN" "http://www.w3.org/Graphics/SVG/1.1/DTD/svg11.dtd"><svg t="1650468110317" class="icon" viewBox="0 0 1024 1024" version="1.1" xmlns="http://www.w3.org/2000/svg" p-id="5545" xmlns:xlink="http://www.w3.org/1999/xlink" width="200" height="200"><defs><style type="text/css">@font-face { font-family: feedback-iconfont; src: url("//at.alicdn.com/t/font_1031158_u69w8yhxdu.woff2?t=1630033759944") format("woff2"), url("//at.alicdn.com/t/font_1031158_u69w8yhxdu.woff?t=1630033759944") format("woff"), url("//at.alicdn.com/t/font_1031158_u69w8yhxdu.ttf?t=1630033759944") format("truetype"); }
</style></defs><path d="M866.894012 619.26837c0 207.504695-170.51991 273.365095-354.626778 273.365095-184.108916 0-354.626778-65.8604-354.626778-273.365095 0-207.506743 190.951541-300.705905 190.951542-300.705905s-70.597917-68.46414-27.279377-136.682548c43.319564-68.214312 190.953589-54.671381 190.953589-54.67138s147.631977-13.542931 190.951542 54.67138c43.319564 68.218408-27.279377 136.682548-27.279377 136.682548s190.955637 93.200186 190.955637 300.705905zM617.69773 336.73643s74.993457-72.786984 57.506519-134.183244c-19.995457-51.756379-151.093734-40.122994-162.810053-37.58683-10.234758-2.536164-133.609868-14.169549-163.062953 37.58683-19.600237 56.107892 57.506519 134.183243 57.506519 134.183244s-210.858944 84.774633-210.858944 271.530292c0 186.753612 152.082807 246.028381 316.288416 246.028381 164.203561 0 316.288416-59.274769 316.288416-246.028381 0.001024-186.754635-210.85792-271.530293-210.85792-271.530292z m0 268.366486c10.586974 0 19.169181 8.582207 19.169181 19.167134 0 10.586974-8.582207 19.169181-19.169181 19.169181h-95.844882v76.677748c0 10.584926-8.582207 19.167133-19.169181 19.167133s-19.169181-8.582207-19.169181-19.167133v-76.677748h-95.844881c-10.586974 0-19.169181-8.582207-19.169181-19.169181 0-10.584926 8.582207-19.167133 19.169181-19.167134h95.844881v-38.339386h-95.844881c-10.586974 0-19.169181-8.580159-19.169181-19.169181 0-10.584926 8.582207-19.169181 19.169181-19.169181h68.61158l-63.190107-62.978162c-7.545011-7.520438-7.545011-19.709793 0-27.229206 7.545011-7.520438 19.778393-7.520438 27.323404 0l81.967139 81.69069 81.96714-81.69069c7.547059-7.520438 19.778393-7.520438 27.323404 0s7.545011 19.709793 0 27.229206l-63.190107 62.978162h69.21772c10.586974 0 19.169181 8.584255 19.169181 19.169181 0 10.589022-8.582207 19.169181-19.169181 19.169181h-95.844882v38.339386h95.842834zM512.268258 165.411746c-1.435487 0-1.039244-0.193514 0.126962-0.444366 1.017742 0.250852 1.308525 0.444366-0.126962 0.444366z" p-id="5546" fill="#1afa29"></path></svg>